<svg width="157" height="57" viewBox="0 0 157 57" fill="none" xmlns="http://www.w3.org/2000/svg">
<path d="M70.1558 45H63.1216L52.8335 22.1509V45H45.7993V10.1641H52.8335L63.1455 33.0371V10.1641H70.1558V45ZM82.5732 45H75.7783V19.1123H82.5732V45ZM75.4673 12.4131C75.4673 11.3604 75.8022 10.499 76.4722 9.8291C77.1421 9.15918 78.0353 8.82422 79.1519 8.82422C80.2684 8.82422 81.1616 9.15918 81.8315 9.8291C82.5015 10.499 82.8364 11.3604 82.8364 12.4131C82.8364 13.4499 82.5015 14.3112 81.8315 14.9971C81.1776 15.6829 80.2843 16.0259 79.1519 16.0259C78.0194 16.0259 77.1182 15.6829 76.4482 14.9971C75.7943 14.3112 75.4673 13.4499 75.4673 12.4131ZM86.9038 31.2666C86.9038 27.0238 87.6216 23.8576 89.0571 21.7681C90.4927 19.6785 92.5822 18.6338 95.3257 18.6338C97.3195 18.6338 98.9784 19.4951 100.302 21.2178V8.25H107.121V45H100.972L100.661 42.3682C99.2734 44.4417 97.487 45.4785 95.3018 45.4785C92.5902 45.4785 90.5166 44.4417 89.0811 42.3682C87.6615 40.2946 86.9357 37.248 86.9038 33.2285V31.2666ZM93.6987 32.9653C93.6987 35.5174 93.9699 37.3039 94.5122 38.3247C95.0545 39.3296 95.9717 39.832 97.2637 39.832C98.6035 39.832 99.6164 39.2339 100.302 38.0376V26.2183C99.6323 24.9422 98.6274 24.3042 97.2876 24.3042C96.0435 24.3042 95.1343 24.8066 94.5601 25.8115C93.9858 26.8164 93.6987 28.6029 93.6987 31.1709V32.9653ZM111.332 31.2188C111.332 27.2949 112.257 24.2165 114.107 21.9834C115.958 19.7503 118.518 18.6338 121.788 18.6338C125.089 18.6338 127.665 19.7503 129.516 21.9834C131.366 24.2165 132.291 27.3109 132.291 31.2666V32.9175C132.291 36.8573 131.374 39.9357 129.54 42.1528C127.705 44.37 125.137 45.4785 121.835 45.4785C118.518 45.4785 115.934 44.37 114.083 42.1528C112.249 39.9198 111.332 36.8254 111.332 32.8696V31.2188ZM118.127 32.9175C118.127 37.5431 119.363 39.856 121.835 39.856C124.116 39.856 125.345 37.9259 125.52 34.0659L125.544 31.2188C125.544 28.8581 125.217 27.1115 124.563 25.979C123.909 24.8306 122.984 24.2563 121.788 24.2563C120.639 24.2563 119.738 24.8306 119.084 25.979C118.446 27.1115 118.127 28.8581 118.127 31.2188V32.9175ZM147.986 38.0615C147.986 37.4873 147.707 36.9609 147.149 36.4824C146.607 35.988 145.386 35.326 143.488 34.4966C140.697 33.3641 138.775 32.1917 137.722 30.9795C136.685 29.7673 136.167 28.2599 136.167 26.4575C136.167 24.1925 136.98 22.3263 138.607 20.8589C140.25 19.3755 142.42 18.6338 145.115 18.6338C147.954 18.6338 150.227 19.3675 151.934 20.835C153.641 22.3024 154.494 24.2723 154.494 26.7446H147.723C147.723 24.6392 146.846 23.5864 145.091 23.5864C144.374 23.5864 143.783 23.8097 143.321 24.2563C142.858 24.703 142.627 25.325 142.627 26.1226C142.627 26.6968 142.882 27.2072 143.393 27.6538C143.903 28.0845 145.107 28.7065 147.005 29.52C149.765 30.5409 151.711 31.6813 152.843 32.9414C153.992 34.1855 154.566 35.8045 154.566 37.7983C154.566 40.1112 153.697 41.9694 151.958 43.373C150.219 44.7767 147.938 45.4785 145.115 45.4785C143.217 45.4785 141.542 45.1117 140.091 44.3779C138.639 43.6283 137.499 42.5915 136.669 41.2676C135.856 39.9437 135.449 38.5161 135.449 36.9849H141.885C141.917 38.1652 142.188 39.0505 142.699 39.6406C143.225 40.2308 144.078 40.5259 145.259 40.5259C147.077 40.5259 147.986 39.7044 147.986 38.0615Z" fill="#1F2933"/>
<path d="M36.1704 10.002C28.5611 10.6067 20.0367 15.2338 19.2708 20.7078V41.1674C19.2708 41.6103 18.9259 41.9682 18.5 41.9682C18.0741 41.9682 17.7292 41.6103 17.7292 41.1674V20.7078C16.9629 15.2338 8.43847 10.6067 0.829622 10.002C0.381922 9.96994 0 10.3313 0 10.8006V35.2514C0 35.6742 0.316556 36.024 0.722733 36.0505C7.77082 36.5096 14.9772 40.1223 17.8574 44.6409C18.1625 45.1193 18.8379 45.1201 19.143 44.6409C22.0232 40.1223 29.2292 36.5096 36.2777 36.0505C36.6834 36.024 37 35.6746 37 35.2514V10.8006C37 10.2651 36.5486 9.97507 36.1704 10.002Z" fill="#4C63B6"/>
</svg>
